<mxfile host="app.diagrams.net" modified="2024-02-05T21:41:47.170Z" agent="Mozilla/5.0 (Macintosh; Intel Mac OS X 10_15_7) AppleWebKit/537.36 (KHTML, like Gecko) Chrome/121.0.0.0 Safari/537.36" etag="hvHt_jMnr8Ma7dvExmge" version="23.1.1" type="device">
  <diagram name="Page-1" id="7LOtrD6qB6eQKsNosrPA">
    <mxGraphModel dx="954" dy="640" grid="1" gridSize="10" guides="1" tooltips="1" connect="1" arrows="1" fold="1" page="1" pageScale="1" pageWidth="827" pageHeight="1169" math="0" shadow="0">
      <root>
        <mxCell id="0" />
        <mxCell id="1" parent="0" />
        <mxCell id="le8tMW4Ti59XV3vlSUPz-2" value="Order service" style="rounded=0;whiteSpace=wrap;html=1;" parent="1" vertex="1">
          <mxGeometry x="320" y="360" width="120" height="60" as="geometry" />
        </mxCell>
        <mxCell id="le8tMW4Ti59XV3vlSUPz-12" style="rounded=0;orthogonalLoop=1;jettySize=auto;html=1;entryX=0;entryY=0.5;entryDx=0;entryDy=0;exitX=0.971;exitY=0.147;exitDx=0;exitDy=0;exitPerimeter=0;" parent="1" source="le8tMW4Ti59XV3vlSUPz-3" target="le8tMW4Ti59XV3vlSUPz-2" edge="1">
          <mxGeometry relative="1" as="geometry" />
        </mxCell>
        <mxCell id="le8tMW4Ti59XV3vlSUPz-13" style="rounded=0;orthogonalLoop=1;jettySize=auto;html=1;entryX=0;entryY=0.5;entryDx=0;entryDy=0;" parent="1" target="le8tMW4Ti59XV3vlSUPz-5" edge="1">
          <mxGeometry relative="1" as="geometry">
            <mxPoint x="150" y="720" as="sourcePoint" />
          </mxGeometry>
        </mxCell>
        <mxCell id="le8tMW4Ti59XV3vlSUPz-46" style="rounded=0;orthogonalLoop=1;jettySize=auto;html=1;entryX=0;entryY=0.5;entryDx=0;entryDy=0;exitX=1.014;exitY=0.594;exitDx=0;exitDy=0;exitPerimeter=0;" parent="1" source="le8tMW4Ti59XV3vlSUPz-3" target="le8tMW4Ti59XV3vlSUPz-45" edge="1">
          <mxGeometry relative="1" as="geometry" />
        </mxCell>
        <mxCell id="le8tMW4Ti59XV3vlSUPz-3" value="API&lt;br&gt;GW" style="rounded=0;whiteSpace=wrap;html=1;" parent="1" vertex="1">
          <mxGeometry x="80" y="320" width="70" height="470" as="geometry" />
        </mxCell>
        <mxCell id="le8tMW4Ti59XV3vlSUPz-5" value="Delivery&lt;br&gt;service" style="rounded=0;whiteSpace=wrap;html=1;" parent="1" vertex="1">
          <mxGeometry x="320" y="690" width="120" height="60" as="geometry" />
        </mxCell>
        <mxCell id="le8tMW4Ti59XV3vlSUPz-6" value="User service" style="rounded=0;whiteSpace=wrap;html=1;" parent="1" vertex="1">
          <mxGeometry x="300" y="480" width="120" height="60" as="geometry" />
        </mxCell>
        <mxCell id="le8tMW4Ti59XV3vlSUPz-16" style="rounded=0;orthogonalLoop=1;jettySize=auto;html=1;entryX=1;entryY=0.5;entryDx=0;entryDy=0;exitX=0;exitY=0.949;exitDx=0;exitDy=0;exitPerimeter=0;" parent="1" source="le8tMW4Ti59XV3vlSUPz-7" target="le8tMW4Ti59XV3vlSUPz-5" edge="1">
          <mxGeometry relative="1" as="geometry" />
        </mxCell>
        <mxCell id="le8tMW4Ti59XV3vlSUPz-7" value="RabbitMQ" style="rounded=1;whiteSpace=wrap;html=1;" parent="1" vertex="1">
          <mxGeometry x="580" y="350" width="70" height="390" as="geometry" />
        </mxCell>
        <mxCell id="le8tMW4Ti59XV3vlSUPz-9" style="rounded=0;orthogonalLoop=1;jettySize=auto;html=1;entryX=0;entryY=0.103;entryDx=0;entryDy=0;entryPerimeter=0;" parent="1" source="le8tMW4Ti59XV3vlSUPz-2" target="le8tMW4Ti59XV3vlSUPz-7" edge="1">
          <mxGeometry relative="1" as="geometry" />
        </mxCell>
        <mxCell id="le8tMW4Ti59XV3vlSUPz-18" value="&lt;div style=&quot;&quot;&gt;&lt;span style=&quot;background-color: initial;&quot;&gt;Create an accaunt&lt;/span&gt;&lt;/div&gt;&lt;div style=&quot;&quot;&gt;&lt;span style=&quot;background-color: initial;&quot;&gt;&lt;br&gt;&lt;/span&gt;&lt;/div&gt;" style="text;html=1;strokeColor=none;fillColor=none;align=left;verticalAlign=middle;whiteSpace=wrap;rounded=0;" parent="1" vertex="1">
          <mxGeometry x="165" y="610" width="110" height="20" as="geometry" />
        </mxCell>
        <mxCell id="le8tMW4Ti59XV3vlSUPz-22" value="User API:&lt;br&gt;&lt;br&gt;POST /api/public/v1/accounts - create an account&lt;br&gt;POST /api/v1/orders - create an order&lt;br&gt;PATCH /api/orders/destionation - change the destionation&lt;br&gt;POST /api/v1/orders/cancel - cancel an order&lt;br&gt;GET /api/v1/orders/{id} - get the order details&lt;br&gt;GET /api/v1/orders/{id}/delivery - get the delivery details" style="text;html=1;align=left;verticalAlign=middle;resizable=0;points=[];autosize=1;strokeColor=none;fillColor=none;" parent="1" vertex="1">
          <mxGeometry x="29" y="40" width="330" height="130" as="geometry" />
        </mxCell>
        <mxCell id="le8tMW4Ti59XV3vlSUPz-23" value="Admin API:&lt;br&gt;&lt;br&gt;PUT /api/v1/order/status - change the status of order&lt;br&gt;GET /api/v1/orders - get list of orders&lt;br&gt;POST /api/v1/deliveries&amp;nbsp;- assing an order to courier&lt;br&gt;POST /api/v1/couriers/account - create courier account&lt;br&gt;GET /api/v1/couriers - get list of couriers&lt;br&gt;&amp;nbsp;&amp;nbsp;" style="text;html=1;strokeColor=none;fillColor=none;align=left;verticalAlign=middle;whiteSpace=wrap;rounded=0;" parent="1" vertex="1">
          <mxGeometry x="404" y="50" width="340" height="40" as="geometry" />
        </mxCell>
        <mxCell id="le8tMW4Ti59XV3vlSUPz-24" value="&lt;div style=&quot;text-align: left;&quot;&gt;&lt;span style=&quot;background-color: initial;&quot;&gt;Courier API:&lt;/span&gt;&lt;/div&gt;&lt;div style=&quot;text-align: left;&quot;&gt;&lt;span style=&quot;background-color: initial;&quot;&gt;GET /api/v1/deliveries - get all orders (deliveries) that assigned&lt;/span&gt;&lt;/div&gt;&lt;div style=&quot;text-align: left;&quot;&gt;&lt;span style=&quot;background-color: initial;&quot;&gt;PUT /api/v1/deliveries/{id} - change the order (delivery) status&lt;/span&gt;&lt;/div&gt;&lt;div style=&quot;text-align: left;&quot;&gt;&lt;span style=&quot;background-color: initial;&quot;&gt;GET /api/v1/deliveries/{id} - get the order (delivery) details&lt;/span&gt;&lt;/div&gt;&lt;div style=&quot;text-align: left;&quot;&gt;&lt;span style=&quot;background-color: initial;&quot;&gt;&lt;br&gt;&lt;/span&gt;&lt;/div&gt;" style="text;html=1;strokeColor=none;fillColor=none;align=center;verticalAlign=middle;whiteSpace=wrap;rounded=0;" parent="1" vertex="1">
          <mxGeometry x="398" y="160" width="346" height="40" as="geometry" />
        </mxCell>
        <mxCell id="le8tMW4Ti59XV3vlSUPz-26" value="Create an order" style="text;html=1;strokeColor=none;fillColor=none;align=center;verticalAlign=middle;whiteSpace=wrap;rounded=0;" parent="1" vertex="1">
          <mxGeometry x="180" y="360" width="110" height="30" as="geometry" />
        </mxCell>
        <mxCell id="le8tMW4Ti59XV3vlSUPz-27" value="Assing the order" style="text;html=1;strokeColor=none;fillColor=none;align=center;verticalAlign=middle;whiteSpace=wrap;rounded=0;" parent="1" vertex="1">
          <mxGeometry x="450" y="360" width="110" height="30" as="geometry" />
        </mxCell>
        <mxCell id="le8tMW4Ti59XV3vlSUPz-28" value="Get deliveries" style="text;html=1;strokeColor=none;fillColor=none;align=center;verticalAlign=middle;whiteSpace=wrap;rounded=0;" parent="1" vertex="1">
          <mxGeometry x="192.5" y="690" width="85" height="30" as="geometry" />
        </mxCell>
        <mxCell id="le8tMW4Ti59XV3vlSUPz-29" value="Create a delivery" style="text;html=1;strokeColor=none;fillColor=none;align=center;verticalAlign=middle;whiteSpace=wrap;rounded=0;" parent="1" vertex="1">
          <mxGeometry x="450" y="690" width="110" height="30" as="geometry" />
        </mxCell>
        <mxCell id="le8tMW4Ti59XV3vlSUPz-31" value="Postgres" style="shape=cylinder3;whiteSpace=wrap;html=1;boundedLbl=1;backgroundOutline=1;size=15;" parent="1" vertex="1">
          <mxGeometry x="350" y="260" width="60" height="80" as="geometry" />
        </mxCell>
        <mxCell id="le8tMW4Ti59XV3vlSUPz-32" style="rounded=0;orthogonalLoop=1;jettySize=auto;html=1;entryX=0.5;entryY=1;entryDx=0;entryDy=0;entryPerimeter=0;" parent="1" source="le8tMW4Ti59XV3vlSUPz-2" target="le8tMW4Ti59XV3vlSUPz-31" edge="1">
          <mxGeometry relative="1" as="geometry" />
        </mxCell>
        <mxCell id="le8tMW4Ti59XV3vlSUPz-33" value="Postgres" style="shape=cylinder3;whiteSpace=wrap;html=1;boundedLbl=1;backgroundOutline=1;size=15;" parent="1" vertex="1">
          <mxGeometry x="450" y="470" width="60" height="80" as="geometry" />
        </mxCell>
        <mxCell id="le8tMW4Ti59XV3vlSUPz-34" style="rounded=0;orthogonalLoop=1;jettySize=auto;html=1;entryX=0;entryY=0.5;entryDx=0;entryDy=0;entryPerimeter=0;" parent="1" source="le8tMW4Ti59XV3vlSUPz-6" target="le8tMW4Ti59XV3vlSUPz-33" edge="1">
          <mxGeometry relative="1" as="geometry" />
        </mxCell>
        <mxCell id="le8tMW4Ti59XV3vlSUPz-35" value="Postgres" style="shape=cylinder3;whiteSpace=wrap;html=1;boundedLbl=1;backgroundOutline=1;size=15;" parent="1" vertex="1">
          <mxGeometry x="350" y="780" width="60" height="80" as="geometry" />
        </mxCell>
        <mxCell id="le8tMW4Ti59XV3vlSUPz-44" style="rounded=0;orthogonalLoop=1;jettySize=auto;html=1;entryX=0.5;entryY=0;entryDx=0;entryDy=0;entryPerimeter=0;" parent="1" source="le8tMW4Ti59XV3vlSUPz-5" target="le8tMW4Ti59XV3vlSUPz-35" edge="1">
          <mxGeometry relative="1" as="geometry" />
        </mxCell>
        <mxCell id="le8tMW4Ti59XV3vlSUPz-48" style="edgeStyle=orthogonalEdgeStyle;rounded=0;orthogonalLoop=1;jettySize=auto;html=1;entryX=0.5;entryY=1;entryDx=0;entryDy=0;" parent="1" source="le8tMW4Ti59XV3vlSUPz-45" target="le8tMW4Ti59XV3vlSUPz-6" edge="1">
          <mxGeometry relative="1" as="geometry" />
        </mxCell>
        <mxCell id="le8tMW4Ti59XV3vlSUPz-45" value="Auth service" style="rounded=0;whiteSpace=wrap;html=1;" parent="1" vertex="1">
          <mxGeometry x="300" y="570" width="120" height="60" as="geometry" />
        </mxCell>
        <mxCell id="le8tMW4Ti59XV3vlSUPz-47" value="&lt;div style=&quot;&quot;&gt;Log in&lt;/div&gt;" style="text;html=1;strokeColor=none;fillColor=none;align=left;verticalAlign=middle;whiteSpace=wrap;rounded=0;" parent="1" vertex="1">
          <mxGeometry x="190" y="575" width="60" height="20" as="geometry" />
        </mxCell>
      </root>
    </mxGraphModel>
  </diagram>
</mxfile>
